<?xml version="1.0" encoding="UTF-8" standalone="no"?>
<!DOCTYPE svg PUBLIC "-//W3C//DTD SVG 1.1//EN" "http://www.w3.org/Graphics/SVG/1.1/DTD/svg11.dtd">
<svg width="100%" height="100%" viewBox="0 0 1982 421" version="1.1" xmlns="http://www.w3.org/2000/svg" xmlns:xlink="http://www.w3.org/1999/xlink" xml:space="preserve" xmlns:serif="http://www.serif.com/" style="fill-rule:evenodd;clip-rule:evenodd;stroke-linejoin:round;stroke-miterlimit:2;">
    <g transform="matrix(1,0,0,1,-3264,-114)">
        <g id="Artboard2" transform="matrix(1.58288,0,0,1.04706,-2830.69,40.0222)">
            <rect x="3850.39" y="70.866" width="1251.97" height="401.575" style="fill:none;"/>
            <clipPath id="_clip1">
                <rect x="3850.39" y="70.866" width="1251.97" height="401.575"/>
            </clipPath>
            <g clip-path="url(#_clip1)">
                <g transform="matrix(1.11857,0,0,1.19398,-456.548,-13.7467)">
                    <g transform="matrix(0.594057,0,0,0.841342,2531.89,-1093.54)">
                        <circle cx="2279.21" cy="1443.71" r="59.722"/>
                    </g>
                    <g transform="matrix(0.594057,0,0,0.841342,2620.59,-1093.54)">
                        <circle cx="2279.21" cy="1443.71" r="59.722"/>
                    </g>
                    <g transform="matrix(0.594057,0,0,0.841342,2544.76,-676.948)">
                        <path d="M2466.58,1053.87C2426.76,1048.5 2386.95,1027.05 2347.13,1021.68C2347.13,1098.48 2347.13,1211.64 2347.13,1288.44C2386.95,1281.31 2426.76,1253.91 2466.58,1246.78C2466.58,1182.47 2466.58,1118.17 2466.58,1053.87Z"/>
                    </g>
                    <g transform="matrix(-0.594057,0,0,0.841342,5315.68,-676.948)">
                        <path d="M2466.58,1053.87C2426.76,1048.5 2386.95,1027.05 2347.13,1021.68C2347.13,1098.48 2347.13,1211.64 2347.13,1288.44C2386.95,1281.31 2426.76,1253.91 2466.58,1246.78C2466.58,1182.47 2466.58,1118.17 2466.58,1053.87Z"/>
                    </g>
                    <g transform="matrix(2.59233,0,0,3.67143,-0.620795,-5734.38)">
                        <g transform="matrix(50,0,0,50,1559.3,1623.11)">
                            <rect x="0.07" y="-0.563" width="0.167" height="0.563" style="fill-rule:nonzero;"/>
                        </g>
                        <g transform="matrix(50,0,0,50,1559.3,1623.11)">
                        </g>
                        <g transform="matrix(50,0,0,50,1574.65,1623.11)">
                            <path d="M0.07,-0.563L0.254,-0.563L0.444,-0.24L0.446,-0.24L0.441,-0.563L0.602,-0.563L0.602,-0L0.42,-0L0.229,-0.319L0.226,-0.319L0.23,-0L0.07,-0L0.07,-0.563Z" style="fill-rule:nonzero;"/>
                        </g>
                        <g transform="matrix(50,0,0,50,1574.65,1623.11)">
                        </g>
                        <g transform="matrix(50,0,0,50,1608.25,1623.11)">
                            <path d="M0.325,-0L0.158,-0L0.158,-0.425L0.005,-0.425L0.005,-0.563L0.478,-0.563L0.478,-0.425L0.325,-0.425L0.325,-0Z" style="fill-rule:nonzero;"/>
                        </g>
                        <g transform="matrix(50,0,0,50,1608.25,1623.11)">
                        </g>
                        <g transform="matrix(50,0,0,50,1632.4,1623.11)">
                            <path d="M0.07,-0.563L0.469,-0.563L0.469,-0.436L0.233,-0.436L0.233,-0.346L0.456,-0.346L0.456,-0.224L0.233,-0.224L0.233,-0.128L0.483,-0.128L0.483,-0L0.07,-0L0.07,-0.563Z" style="fill-rule:nonzero;"/>
                        </g>
                        <g transform="matrix(50,0,0,50,1632.4,1623.11)">
                        </g>
                        <g transform="matrix(50,0,0,50,1659.15,1623.11)">
                            <path d="M0.07,-0.563L0.305,-0.563C0.336,-0.563 0.366,-0.56 0.393,-0.554C0.42,-0.548 0.444,-0.538 0.465,-0.525C0.485,-0.511 0.501,-0.493 0.513,-0.471C0.524,-0.448 0.53,-0.421 0.53,-0.389C0.53,-0.35 0.521,-0.317 0.503,-0.29C0.484,-0.263 0.459,-0.243 0.428,-0.23L0.565,-0L0.381,-0L0.273,-0.2L0.235,-0.2L0.235,-0L0.07,-0L0.07,-0.563ZM0.235,-0.32L0.29,-0.32C0.299,-0.32 0.308,-0.321 0.317,-0.323C0.326,-0.325 0.334,-0.328 0.341,-0.333C0.347,-0.338 0.353,-0.344 0.358,-0.352C0.362,-0.36 0.364,-0.37 0.364,-0.383C0.364,-0.404 0.357,-0.419 0.343,-0.426C0.328,-0.432 0.311,-0.436 0.291,-0.436L0.235,-0.436L0.235,-0.32Z" style="fill-rule:nonzero;"/>
                        </g>
                        <g transform="matrix(50,0,0,50,1658.55,1623.11)">
                        </g>
                        <g transform="matrix(50,0,0,50,1686.95,1623.11)">
                            <path d="M0.325,-0L0.158,-0L0.158,-0.425L0.005,-0.425L0.005,-0.563L0.478,-0.563L0.478,-0.425L0.325,-0.425L0.325,-0Z" style="fill-rule:nonzero;"/>
                        </g>
                        <g transform="matrix(50,0,0,50,1686.95,1623.11)">
                        </g>
                        <g transform="matrix(50,0,0,50,1711.1,1623.11)">
                            <path d="M0.701,-0L0.536,-0L0.438,-0.35L0.436,-0.35L0.34,-0L0.176,-0L0.004,-0.563L0.181,-0.563L0.266,-0.207L0.269,-0.207L0.358,-0.563L0.524,-0.563L0.615,-0.207L0.617,-0.207L0.704,-0.563L0.874,-0.563L0.701,-0Z" style="fill-rule:nonzero;"/>
                        </g>
                        <g transform="matrix(50,0,0,50,1711.1,1623.11)">
                        </g>
                        <g transform="matrix(50,0,0,50,1755,1623.11)">
                            <rect x="0.07" y="-0.563" width="0.167" height="0.563" style="fill-rule:nonzero;"/>
                        </g>
                        <g transform="matrix(50,0,0,50,1755,1623.11)">
                        </g>
                        <g transform="matrix(50,0,0,50,1770.35,1623.11)">
                            <path d="M0.07,-0.563L0.254,-0.563L0.444,-0.24L0.446,-0.24L0.441,-0.563L0.602,-0.563L0.602,-0L0.42,-0L0.229,-0.319L0.226,-0.319L0.23,-0L0.07,-0L0.07,-0.563Z" style="fill-rule:nonzero;"/>
                        </g>
                        <g transform="matrix(50,0,0,50,1770.35,1623.11)">
                        </g>
                        <g transform="matrix(50,0,0,50,1803.95,1623.11)">
                            <path d="M0.358,0.016C0.312,0.016 0.27,0.009 0.231,-0.005C0.192,-0.018 0.158,-0.038 0.13,-0.064C0.101,-0.089 0.079,-0.121 0.063,-0.158C0.047,-0.195 0.039,-0.236 0.039,-0.283C0.039,-0.328 0.047,-0.368 0.064,-0.405C0.08,-0.442 0.102,-0.473 0.131,-0.499C0.16,-0.524 0.194,-0.544 0.233,-0.558C0.272,-0.572 0.313,-0.579 0.358,-0.579C0.407,-0.579 0.45,-0.572 0.488,-0.56C0.525,-0.547 0.558,-0.528 0.586,-0.505L0.478,-0.382C0.463,-0.399 0.445,-0.413 0.426,-0.422C0.406,-0.431 0.384,-0.435 0.361,-0.435C0.34,-0.435 0.32,-0.431 0.303,-0.424C0.285,-0.417 0.27,-0.406 0.257,-0.393C0.244,-0.38 0.234,-0.364 0.227,-0.345C0.22,-0.326 0.216,-0.305 0.216,-0.282C0.216,-0.234 0.229,-0.196 0.256,-0.169C0.283,-0.142 0.318,-0.128 0.363,-0.128C0.376,-0.128 0.388,-0.129 0.401,-0.131C0.413,-0.132 0.424,-0.135 0.434,-0.139L0.434,-0.215L0.334,-0.215L0.334,-0.333L0.59,-0.333L0.59,-0.038C0.56,-0.023 0.525,-0.01 0.485,0.001C0.445,0.011 0.403,0.016 0.358,0.016Z" style="fill-rule:nonzero;"/>
                        </g>
                        <g transform="matrix(50,0,0,50,1803.95,1623.11)">
                        </g>
                        <g transform="matrix(50,0,0,50,1836.2,1623.11)">
                            <path d="M0.07,-0.563L0.237,-0.563L0.237,-0.14L0.445,-0.14L0.445,-0L0.07,-0L0.07,-0.563Z" style="fill-rule:nonzero;"/>
                        </g>
                        <g transform="matrix(50,0,0,50,1836.2,1623.11)">
                        </g>
                        <g transform="matrix(50,0,0,50,1859.75,1623.11)">
                            <path d="M0.07,-0.563L0.469,-0.563L0.469,-0.436L0.233,-0.436L0.233,-0.346L0.456,-0.346L0.456,-0.224L0.233,-0.224L0.233,-0.128L0.483,-0.128L0.483,-0L0.07,-0L0.07,-0.563Z" style="fill-rule:nonzero;"/>
                        </g>
                        <g transform="matrix(50,0,0,50,1859.75,1623.11)">
                        </g>
                        <g transform="matrix(50,0,0,50,1886.5,1623.11)">
                            <path d="M0.07,-0L0.07,-0.563L0.288,-0.563C0.331,-0.563 0.372,-0.558 0.411,-0.549C0.45,-0.54 0.485,-0.524 0.516,-0.503C0.546,-0.481 0.57,-0.452 0.589,-0.417C0.607,-0.381 0.616,-0.336 0.616,-0.283C0.616,-0.234 0.607,-0.191 0.589,-0.156C0.571,-0.12 0.547,-0.091 0.517,-0.068C0.487,-0.045 0.453,-0.028 0.414,-0.017C0.375,-0.006 0.334,-0 0.293,-0L0.07,-0ZM0.236,-0.133L0.278,-0.133C0.3,-0.133 0.321,-0.136 0.341,-0.141C0.36,-0.146 0.377,-0.154 0.392,-0.166C0.407,-0.178 0.418,-0.194 0.427,-0.213C0.436,-0.232 0.44,-0.256 0.44,-0.285C0.44,-0.313 0.436,-0.336 0.428,-0.355C0.419,-0.374 0.408,-0.389 0.394,-0.4C0.379,-0.411 0.362,-0.42 0.343,-0.425C0.324,-0.43 0.303,-0.432 0.281,-0.432L0.236,-0.432L0.236,-0.133Z" style="fill-rule:nonzero;"/>
                        </g>
                        <g transform="matrix(50,0,0,50,1886.5,1623.11)">
                        </g>
                        <g transform="matrix(50,0,0,50,1919.25,1623.11)">
                        </g>
                    </g>
                    <g transform="matrix(3.01064,0,0,4.26386,-654.503,-6551.11)">
                        <g transform="matrix(50,0,0,50,1559.3,1623.11)">
                            <rect x="0.07" y="-0.563" width="0.167" height="0.563" style="fill-rule:nonzero;"/>
                        </g>
                        <g transform="matrix(50,0,0,50,1559.3,1623.11)">
                        </g>
                        <g transform="matrix(50,0,0,50,1574.65,1623.11)">
                            <path d="M0.07,-0.563L0.254,-0.563L0.444,-0.24L0.446,-0.24L0.441,-0.563L0.602,-0.563L0.602,-0L0.42,-0L0.229,-0.319L0.226,-0.319L0.23,-0L0.07,-0L0.07,-0.563Z" style="fill-rule:nonzero;"/>
                        </g>
                        <g transform="matrix(50,0,0,50,1574.65,1623.11)">
                        </g>
                        <g transform="matrix(50,0,0,50,1608.25,1623.11)">
                            <path d="M0.07,-0.563L0.254,-0.563L0.444,-0.24L0.446,-0.24L0.441,-0.563L0.602,-0.563L0.602,-0L0.42,-0L0.229,-0.319L0.226,-0.319L0.23,-0L0.07,-0L0.07,-0.563Z" style="fill-rule:nonzero;"/>
                        </g>
                        <g transform="matrix(50,0,0,50,1608.25,1623.11)">
                        </g>
                        <g transform="matrix(50,0,0,50,1641.85,1623.11)">
                            <path d="M0.665,-0.283C0.665,-0.238 0.657,-0.197 0.64,-0.16C0.623,-0.123 0.601,-0.091 0.572,-0.065C0.543,-0.039 0.51,-0.019 0.472,-0.005C0.434,0.009 0.394,0.016 0.351,0.016C0.309,0.016 0.269,0.009 0.231,-0.005C0.193,-0.019 0.16,-0.039 0.132,-0.065C0.103,-0.091 0.081,-0.123 0.064,-0.16C0.047,-0.197 0.039,-0.238 0.039,-0.283C0.039,-0.328 0.047,-0.368 0.064,-0.405C0.081,-0.442 0.103,-0.473 0.132,-0.499C0.16,-0.524 0.193,-0.544 0.231,-0.558C0.269,-0.572 0.309,-0.579 0.351,-0.579C0.394,-0.579 0.434,-0.572 0.472,-0.558C0.51,-0.544 0.543,-0.524 0.572,-0.499C0.601,-0.473 0.623,-0.442 0.64,-0.405C0.657,-0.368 0.665,-0.328 0.665,-0.283ZM0.49,-0.283C0.49,-0.301 0.487,-0.319 0.481,-0.336C0.475,-0.353 0.466,-0.369 0.455,-0.383C0.443,-0.396 0.428,-0.407 0.411,-0.416C0.394,-0.424 0.374,-0.428 0.351,-0.428C0.329,-0.428 0.31,-0.424 0.293,-0.416C0.276,-0.407 0.261,-0.396 0.25,-0.383C0.239,-0.369 0.23,-0.353 0.225,-0.336C0.219,-0.319 0.216,-0.301 0.216,-0.283C0.216,-0.264 0.219,-0.246 0.225,-0.229C0.23,-0.211 0.239,-0.195 0.251,-0.182C0.262,-0.168 0.277,-0.157 0.294,-0.149C0.311,-0.14 0.33,-0.136 0.353,-0.136C0.375,-0.136 0.395,-0.14 0.412,-0.149C0.429,-0.157 0.444,-0.168 0.455,-0.182C0.466,-0.195 0.475,-0.211 0.481,-0.229C0.487,-0.246 0.49,-0.264 0.49,-0.283Z" style="fill-rule:nonzero;"/>
                        </g>
                        <g transform="matrix(50,0,0,50,1641.55,1623.11)">
                        </g>
                        <g transform="matrix(50,0,0,50,1676.75,1623.11)">
                            <path d="M-0.004,-0.563L0.177,-0.563L0.295,-0.202L0.299,-0.202L0.416,-0.563L0.593,-0.563L0.375,-0L0.21,-0L-0.004,-0.563Z" style="fill-rule:nonzero;"/>
                        </g>
                        <g transform="matrix(50,0,0,50,1675.85,1623.11)">
                        </g>
                        <g transform="matrix(50,0,0,50,1705.3,1623.11)">
                            <path d="M0.235,-0.563L0.409,-0.563L0.643,-0L0.462,-0L0.424,-0.102L0.214,-0.102L0.175,-0L-0.002,-0L0.235,-0.563ZM0.319,-0.394L0.255,-0.222L0.382,-0.222L0.319,-0.394Z" style="fill-rule:nonzero;"/>
                        </g>
                        <g transform="matrix(50,0,0,50,1704.1,1623.11)">
                        </g>
                        <g transform="matrix(50,0,0,50,1736.15,1623.11)">
                            <path d="M0.325,-0L0.158,-0L0.158,-0.425L0.005,-0.425L0.005,-0.563L0.478,-0.563L0.478,-0.425L0.325,-0.425L0.325,-0Z" style="fill-rule:nonzero;"/>
                        </g>
                        <g transform="matrix(50,0,0,50,1736.15,1623.11)">
                        </g>
                        <g transform="matrix(50,0,0,50,1760.3,1623.11)">
                            <rect x="0.07" y="-0.563" width="0.167" height="0.563" style="fill-rule:nonzero;"/>
                        </g>
                        <g transform="matrix(50,0,0,50,1760.3,1623.11)">
                        </g>
                        <g transform="matrix(50,0,0,50,1775.65,1623.11)">
                            <path d="M0.665,-0.283C0.665,-0.238 0.657,-0.197 0.64,-0.16C0.623,-0.123 0.601,-0.091 0.572,-0.065C0.543,-0.039 0.51,-0.019 0.472,-0.005C0.434,0.009 0.394,0.016 0.351,0.016C0.309,0.016 0.269,0.009 0.231,-0.005C0.193,-0.019 0.16,-0.039 0.132,-0.065C0.103,-0.091 0.081,-0.123 0.064,-0.16C0.047,-0.197 0.039,-0.238 0.039,-0.283C0.039,-0.328 0.047,-0.368 0.064,-0.405C0.081,-0.442 0.103,-0.473 0.132,-0.499C0.16,-0.524 0.193,-0.544 0.231,-0.558C0.269,-0.572 0.309,-0.579 0.351,-0.579C0.394,-0.579 0.434,-0.572 0.472,-0.558C0.51,-0.544 0.543,-0.524 0.572,-0.499C0.601,-0.473 0.623,-0.442 0.64,-0.405C0.657,-0.368 0.665,-0.328 0.665,-0.283ZM0.49,-0.283C0.49,-0.301 0.487,-0.319 0.481,-0.336C0.475,-0.353 0.466,-0.369 0.455,-0.383C0.443,-0.396 0.428,-0.407 0.411,-0.416C0.394,-0.424 0.374,-0.428 0.351,-0.428C0.329,-0.428 0.31,-0.424 0.293,-0.416C0.276,-0.407 0.261,-0.396 0.25,-0.383C0.239,-0.369 0.23,-0.353 0.225,-0.336C0.219,-0.319 0.216,-0.301 0.216,-0.283C0.216,-0.264 0.219,-0.246 0.225,-0.229C0.23,-0.211 0.239,-0.195 0.251,-0.182C0.262,-0.168 0.277,-0.157 0.294,-0.149C0.311,-0.14 0.33,-0.136 0.353,-0.136C0.375,-0.136 0.395,-0.14 0.412,-0.149C0.429,-0.157 0.444,-0.168 0.455,-0.182C0.466,-0.195 0.475,-0.211 0.481,-0.229C0.487,-0.246 0.49,-0.264 0.49,-0.283Z" style="fill-rule:nonzero;"/>
                        </g>
                        <g transform="matrix(50,0,0,50,1775.65,1623.11)">
                        </g>
                        <g transform="matrix(50,0,0,50,1810.85,1623.11)">
                            <path d="M0.07,-0.563L0.254,-0.563L0.444,-0.24L0.446,-0.24L0.441,-0.563L0.602,-0.563L0.602,-0L0.42,-0L0.229,-0.319L0.226,-0.319L0.23,-0L0.07,-0L0.07,-0.563Z" style="fill-rule:nonzero;"/>
                        </g>
                        <g transform="matrix(50,0,0,50,1810.85,1623.11)">
                        </g>
                        <g transform="matrix(50,0,0,50,1844.45,1623.11)">
                            <path d="M0.378,-0.395C0.363,-0.408 0.346,-0.42 0.328,-0.43C0.309,-0.44 0.288,-0.445 0.267,-0.445C0.252,-0.445 0.237,-0.442 0.224,-0.435C0.21,-0.428 0.203,-0.416 0.203,-0.4C0.203,-0.385 0.21,-0.373 0.225,-0.366C0.24,-0.359 0.264,-0.351 0.298,-0.343C0.318,-0.338 0.338,-0.332 0.358,-0.324C0.378,-0.316 0.396,-0.306 0.412,-0.293C0.428,-0.28 0.441,-0.264 0.451,-0.245C0.461,-0.226 0.466,-0.202 0.466,-0.175C0.466,-0.14 0.459,-0.11 0.446,-0.086C0.433,-0.061 0.415,-0.042 0.394,-0.027C0.372,-0.012 0.348,-0.001 0.321,0.006C0.294,0.013 0.268,0.016 0.241,0.016C0.198,0.016 0.157,0.009 0.116,-0.006C0.075,-0.021 0.04,-0.042 0.013,-0.071L0.109,-0.179C0.124,-0.161 0.143,-0.146 0.167,-0.135C0.19,-0.123 0.214,-0.117 0.239,-0.117C0.253,-0.117 0.267,-0.121 0.28,-0.128C0.293,-0.135 0.3,-0.147 0.3,-0.165C0.3,-0.182 0.292,-0.195 0.275,-0.203C0.258,-0.211 0.232,-0.22 0.196,-0.229C0.178,-0.234 0.16,-0.24 0.142,-0.247C0.123,-0.254 0.107,-0.264 0.092,-0.277C0.077,-0.289 0.066,-0.304 0.057,-0.323C0.048,-0.341 0.043,-0.363 0.043,-0.39C0.043,-0.423 0.05,-0.452 0.063,-0.476C0.076,-0.499 0.094,-0.519 0.115,-0.534C0.135,-0.549 0.159,-0.561 0.185,-0.568C0.211,-0.575 0.237,-0.579 0.262,-0.579C0.301,-0.579 0.34,-0.572 0.378,-0.559C0.415,-0.545 0.447,-0.525 0.473,-0.498L0.378,-0.395Z" style="fill-rule:nonzero;"/>
                        </g>
                        <g transform="matrix(50,0,0,50,1844.45,1623.11)">
                        </g>
                        <g transform="matrix(50,0,0,50,1869.8,1623.11)">
                        </g>
                    </g>
                </g>
            </g>
        </g>
    </g>
</svg>
